<?xml version="1.0" standalone="no"?>
<!DOCTYPE svg PUBLIC "-//W3C//DTD SVG 20010904//EN"
 "http://www.w3.org/TR/2001/REC-SVG-20010904/DTD/svg10.dtd">
<svg version="1.0" xmlns="http://www.w3.org/2000/svg"
 width="1101.000000pt" height="532.000000pt" viewBox="0 0 1101.000000 532.000000"
 preserveAspectRatio="xMidYMid meet">

<g transform="translate(0.000000,532.000000) scale(0.100000,-0.100000)"
fill="#000000" stroke="none">
<path d="M2625 5003 c-127 -79 -218 -148 -353 -267 -216 -190 -482 -477 -669
-724 l-87 -113 65 -65 c130 -133 435 -390 678 -573 l84 -63 -7 54 c-22 173
-35 390 -36 580 l0 218 -27 -5 c-157 -24 -158 -18 -27 131 129 146 474 494
490 494 16 0 365 -354 493 -499 77 -87 98 -117 90 -127 -6 -7 -23 -11 -37 -9
-15 2 -45 6 -67 9 l-40 5 -2 -217 c-2 -186 -20 -458 -40 -596 l-6 -39 84 64
c125 94 424 335 493 398 85 76 246 234 246 241 0 12 -152 206 -258 330 -140
164 -358 388 -502 514 -166 147 -411 316 -456 316 -11 0 -59 -26 -109 -57z"/>
<path d="M1255 3734 c-244 -182 -662 -571 -650 -603 31 -79 24 -393 -11 -504
-4 -12 44 31 106 96 152 159 487 460 501 451 8 -5 9 -29 5 -79 l-7 -72 283 -6
c248 -5 487 -23 551 -43 25 -8 -72 120 -336 446 -56 68 -158 183 -227 253
l-125 129 -90 -68z"/>
<path d="M5579 3741 c-32 -33 -59 -63 -59 -68 0 -5 21 -26 46 -47 33 -28 45
-34 40 -20 -3 10 -6 38 -8 62 -2 36 3 48 28 72 l30 30 39 -40 c21 -22 34 -40
27 -40 -8 0 -12 -18 -12 -50 0 -53 -17 -73 -44 -51 -16 14 -74 -13 -83 -38 -3
-9 -13 -24 -21 -33 -12 -15 -13 -20 -1 -34 7 -9 18 -25 24 -36 5 -12 13 -19
16 -17 4 2 16 -5 28 -15 20 -18 22 -18 41 -1 26 23 31 17 38 -42 3 -26 9 -50
13 -53 4 -3 -8 -22 -28 -43 -30 -32 -37 -36 -51 -25 -31 25 -61 63 -51 66 5 2
9 24 9 49 l0 45 -39 -33 c-22 -19 -40 -39 -40 -45 -2 -19 109 -124 130 -124
27 0 138 100 139 125 0 6 -18 28 -40 50 -32 31 -37 42 -29 57 5 10 7 18 3 18
-4 0 1 9 10 19 11 13 15 25 10 33 -5 7 -14 27 -20 44 -10 29 -8 33 28 63 21
18 38 40 38 50 0 22 -114 131 -136 131 -9 0 -42 -27 -75 -59z m89 -238 c-5
-26 -38 -29 -38 -4 0 15 6 21 21 21 14 0 19 -5 17 -17z"/>
<path d="M3924 3687 c-128 -133 -203 -219 -360 -417 -159 -199 -234 -297 -234
-306 0 -4 15 -4 33 0 110 23 297 38 535 43 l273 6 -7 72 c-4 44 -3 75 3 78 10
6 259 -210 332 -287 40 -42 51 -45 51 -13 0 33 77 307 97 344 l17 33 -39 41
c-139 144 -566 499 -600 499 -7 0 -52 -42 -101 -93z"/>
<path d="M5432 3604 c-23 -19 -42 -44 -42 -55 0 -24 12 -24 34 0 15 16 27 18
74 14 55 -6 56 -6 42 13 -27 35 -53 64 -60 64 -3 0 -25 -16 -48 -36z"/>
<path d="M5771 3603 c-17 -21 -31 -40 -31 -44 0 -3 26 -2 58 2 34 5 61 4 67
-2 14 -14 25 -11 25 10 0 18 -58 71 -79 71 -5 0 -23 -17 -40 -37z"/>
<path d="M4666 3519 c122 -97 320 -281 415 -385 41 -44 140 -165 210 -255 l26
-33 71 53 c40 29 72 55 72 56 0 2 -21 35 -47 72 -80 116 -279 338 -420 468
l-134 125 -160 0 -160 0 127 -101z"/>
<path d="M6840 3485 l0 -125 608 0 c514 1 610 3 626 15 11 8 28 15 39 15 11 0
15 4 11 11 -5 8 1 10 19 5 15 -3 27 -2 29 5 2 6 18 12 35 13 18 2 40 9 50 17
15 12 16 12 8 -1 -7 -12 -6 -13 6 -4 8 5 30 11 49 13 19 1 47 9 62 16 20 10
77 12 225 11 192 -3 202 -4 328 -39 72 -19 149 -45 172 -56 41 -21 53 -21 643
-21 l600 0 0 125 0 125 -1755 0 -1755 0 0 -125z"/>
<path d="M6291 3531 l-64 -6 -111 -165 c-155 -230 -259 -362 -383 -485 -92
-91 -225 -203 -278 -232 -8 -5 -24 -41 -35 -80 -67 -241 -215 -504 -398 -708
-50 -55 -87 -103 -84 -106 12 -12 192 -89 206 -89 7 0 42 30 76 67 212 226
359 481 438 760 19 69 23 74 139 189 139 138 198 214 380 489 72 110 159 239
192 288 l60 87 -37 -2 c-20 -1 -66 -4 -101 -7z"/>
<path d="M5380 3471 c0 -18 81 -101 98 -101 8 0 33 25 62 64 14 18 13 19 -38
14 -44 -4 -57 -1 -84 18 -38 29 -38 29 -38 5z"/>
<path d="M5856 3443 c-13 -13 -20 -15 -23 -5 -5 13 -93 18 -93 5 0 -14 61 -73
75 -73 19 0 85 59 85 76 0 19 -22 18 -44 -3z"/>
<path d="M2555 3270 l-120 -120 -167 0 -168 0 0 -173 0 -172 -125 -125 -125
-125 125 -125 125 -125 0 -168 0 -167 173 0 172 0 120 -120 c66 -66 123 -120
127 -120 4 0 60 54 124 120 l116 120 165 -1 c91 0 167 2 169 4 2 2 4 78 5 170
l0 165 125 131 126 131 -127 122 -126 121 1 66 c1 36 1 112 1 169 l-1 102
-166 0 -166 0 -125 120 c-69 66 -128 120 -132 120 -3 0 -60 -54 -126 -120z
m185 -562 c19 -6 46 -23 61 -38 79 -75 62 -217 -33 -270 -111 -62 -258 17
-258 140 0 84 37 139 111 169 33 13 80 13 119 -1z"/>
<path d="M10173 3240 c-48 -25 -53 -32 -242 -339 -121 -196 -130 -215 -118
-235 18 -28 53 -137 67 -209 l12 -58 109 178 c61 98 117 185 125 193 13 13 16
13 24 0 6 -9 10 -203 10 -477 l0 -463 130 0 130 0 0 675 c0 473 -3 681 -11
698 -15 33 -46 46 -127 53 -56 4 -74 2 -109 -16z"/>
<path d="M6200 2735 l0 -125 595 0 595 0 0 25 c0 37 0 39 14 55 7 8 25 42 41
75 15 33 35 68 43 78 14 16 -17 17 -636 17 l-652 0 0 -125z"/>
<path d="M571 2538 c-5 -13 -15 -44 -22 -69 -7 -24 -16 -48 -20 -54 -14 -20
-99 -189 -99 -198 0 -28 268 -308 455 -476 216 -193 436 -371 459 -371 14 0
134 122 248 252 131 149 448 549 448 565 0 3 -19 2 -42 -1 -129 -22 -331 -37
-550 -43 l-248 -6 3 -71 c1 -49 -2 -71 -10 -71 -21 0 -191 153 -405 364 -198
194 -208 203 -217 179z"/>
<path d="M4479 2242 c-184 -172 -301 -272 -311 -266 -6 4 -8 33 -3 79 l6 72
-278 6 c-243 5 -410 19 -538 43 l-37 7 88 -114 c221 -288 361 -454 508 -605
l111 -114 70 52 c184 138 339 273 533 462 120 119 150 156 122 156 -11 0 -16
10 -97 173 -29 58 -53 112 -53 121 0 34 -21 21 -121 -72z"/>
<path d="M5790 1995 l0 -125 771 0 771 0 -6 48 c-3 26 -8 82 -12 125 l-6 77
-759 0 -759 0 0 -125z"/>
<path d="M3114 1918 c26 -120 46 -390 46 -631 l0 -199 74 7 c48 4 76 3 80 -4
9 -14 -203 -251 -411 -459 -144 -144 -176 -171 -191 -163 -26 14 -404 401
-497 509 -44 51 -80 99 -80 105 0 8 21 11 71 9 l71 -3 6 248 c6 220 22 423 43
551 3 23 4 42 1 42 -16 0 -359 -270 -532 -419 -136 -117 -285 -261 -285 -275
0 -16 137 -193 265 -342 239 -280 503 -530 715 -681 l105 -74 60 7 c33 4 96 8
140 8 l80 1 90 65 c197 142 419 350 640 600 118 134 305 365 327 405 18 31
-373 376 -740 654 -70 53 -82 59 -78 39z"/>
</g>
</svg>
